<svg xmlns="http://www.w3.org/2000/svg" viewBox="0 0 2591.67 2195.83"><defs><style>.cls-1{fill:#473424;}.cls-2{fill:#866d44;}.cls-3{fill:#ccbea1;}</style></defs><title>логотип</title><g id="Слой_1" data-name="Слой 1"><path class="cls-1" d="M2806.33,695.67v1837.5H1510.5V695.67c0-197.9,160.43-358.33,358.33-358.33H2448C2645.9,337.34,2806.33,497.77,2806.33,695.67Z" transform="translate(-1510.5 -337.34)"/><path class="cls-2" d="M1639.37,2007c45.64-11.11,92.08-18.39,138.82-23.19a1026.66,1026.66,0,0,1,141-5c47.1,1.86,94.29,7.28,140.51,18.29a538.83,538.83,0,0,1,68.17,21.08c2.78,1.08,5.53,2.23,8.3,3.35l4.15,1.68c1.39.57,2.74,1.19,4.11,1.79l8.21,3.6c2.72,1.26,5.41,2.56,8.11,3.84l4.06,1.93c1.34.66,2.66,1.37,4,2l8,4.11,7.87,4.36,3.93,2.19,3.86,2.31,7.73,4.63,7.58,4.9,3.79,2.45,3.7,2.58,7.4,5.18,7.23,5.43,3.62,2.71,3.52,2.85,7,5.7,6.82,6,3.41,3,3.3,3.11,6.59,6.24,12.56,12,6.26,6,6.44,5.75c4.32,3.82,8.57,7.7,12.92,11.47l13.19,11.08,3.3,2.77c1.11.91,2.25,1.77,3.38,2.66l6.76,5.3,6.74,5.33c2.26,1.75,4.6,3.39,6.9,5.09l6.92,5.06,3.45,2.54c1.16.83,2.35,1.61,3.53,2.42a461,461,0,0,0,58.34,35.15,323.12,323.12,0,0,0,63.07,24.34l8.18,2.13c1.36.39,2.75.63,4.12.92l4.14.86,4.14.86,2.07.43,2.09.34,8.35,1.35c2.79.52,5.6.73,8.4,1.07l4.22.47c1.4.16,2.8.33,4.22.41l8.46.58,2.12.15,2.13,0,4.25.1c5.67.24,11.35,0,17,0,2.84-.12,5.69-.31,8.53-.47,1.43-.09,2.85-.12,4.28-.26l4.26-.4c5.71-.42,11.38-1.26,17.08-2l8.52-1.35c2.85-.41,5.66-1,8.51-1.54,11.36-2.09,22.65-4.8,33.94-7.7l8.47-2.23,8.47-2.32c5.65-1.52,11.3-3.11,17-4.59l.83,2.36c-5.36,2.4-10.75,4.71-16.14,7.06l-8.13,3.42-8.19,3.32q-16.44,6.55-33.52,11.77l-4.27,1.28c-1.43.43-2.86.83-4.31,1.2l-8.66,2.26c-5.83,1.32-11.66,2.68-17.58,3.69-2.95.54-5.9,1.11-8.88,1.48s-6,.85-9,1.22c-6,.56-12,1.3-18,1.47a274,274,0,0,1-72.31-5.91l-4.47-.91-4.41-1.13-8.82-2.29c-1.48-.36-2.92-.82-4.37-1.27l-4.34-1.36-8.69-2.72-8.52-3.16-4.27-1.59c-1.41-.53-2.85-1-4.23-1.65l-8.35-3.56-4.18-1.79-2.08-.89-2.05-1a401.21,401.21,0,0,1-62.4-36.33c-1.23-.85-2.49-1.67-3.71-2.55l-3.6-2.69-7.18-5.4c-2.39-1.81-4.82-3.57-7.16-5.43l-7-5.66-6.93-5.68c-1.15-1-2.32-1.89-3.45-2.87l-3.34-3-13.38-11.87c-4.36-4.06-8.6-8.23-12.91-12.34l-6.42-6.19-6.22-6.38L2247.92,2120,2242,2114l-3-3-3.09-2.91-6.2-5.81-6.41-5.58-3.22-2.79-3.31-2.67-6.65-5.33-6.85-5.07-3.44-2.54-3.52-2.41-7-4.83-7.21-4.59-3.62-2.29-3.69-2.17-7.38-4.33-7.53-4.1c-1.26-.68-2.5-1.39-3.77-2l-3.83-1.94c-2.56-1.28-5.1-2.6-7.67-3.86l-7.78-3.65c-1.3-.6-2.59-1.23-3.9-1.8l-3.95-1.71c-2.63-1.14-5.25-2.31-7.9-3.41a519.76,519.76,0,0,0-65.43-22c-44.6-12-90.73-18.73-137.09-21.93a1019,1019,0,0,0-139.68.19q-34.92,2.33-69.71,6.8-17.39,2.18-34.7,4.92c-11.53,1.85-23.07,3.84-34.47,6.23Z" transform="translate(-1510.5 -337.34)"/><polygon class="cls-3" points="1295.83 654.23 1295.83 1387.5 895.83 720.83 791.67 1487.5 391.67 1487.5 629.17 308.33 858.33 308.33 1283.33 650 1295.83 654.23"/><path class="cls-1" d="M2806.34,679V2533.17H4102.17V679c0-188.7-153-341.66-341.67-341.66H3148C2959.3,337.34,2806.34,490.3,2806.34,679Z" transform="translate(-1510.5 -337.34)"/><path class="cls-2" d="M3972.71,2009.38c-11.41-2.39-22.95-4.38-34.48-6.23s-23.11-3.47-34.7-4.92q-34.76-4.43-69.7-6.8a1019,1019,0,0,0-139.68-.19c-46.37,3.2-92.5,9.9-137.09,21.93a519.22,519.22,0,0,0-65.43,22c-2.65,1.1-5.27,2.27-7.91,3.41l-3.94,1.71c-1.32.57-2.6,1.2-3.9,1.8l-7.79,3.65c-2.57,1.26-5.11,2.58-7.66,3.86l-3.83,1.94c-1.27.65-2.52,1.36-3.77,2l-7.53,4.1-7.38,4.33-3.69,2.17-3.62,2.29-7.21,4.59-7.05,4.83-3.52,2.41-3.43,2.54-6.85,5.07-6.65,5.33-3.32,2.67-3.21,2.79-6.42,5.58-6.19,5.81-3.1,2.91-3,3-6,6.05-12.41,12.74-6.22,6.38-6.43,6.19c-4.3,4.11-8.54,8.28-12.9,12.34l-13.38,11.87-3.35,3c-1.13,1-2.29,1.91-3.44,2.87l-6.93,5.68-7,5.66c-2.35,1.86-4.78,3.62-7.16,5.43l-7.19,5.4-3.59,2.69c-1.22.88-2.48,1.7-3.71,2.55a400.85,400.85,0,0,1-62.41,36.33l-2,1-2.09.89-4.17,1.79-8.35,3.56c-1.38.62-2.82,1.12-4.24,1.65l-4.26,1.59-8.52,3.16-8.69,2.72-4.35,1.36c-1.44.45-2.89.91-4.37,1.27l-8.82,2.29-4.4,1.13-4.47.91a274.09,274.09,0,0,1-72.31,5.91c-6-.17-12-.91-18-1.47-3-.37-6-.82-8.94-1.22s-5.93-.94-8.89-1.48c-5.91-1-11.75-2.37-17.57-3.69l-8.67-2.26c-1.44-.37-2.87-.77-4.3-1.2l-4.28-1.28q-17.05-5.23-33.52-11.77l-8.18-3.32-8.14-3.42c-5.38-2.35-10.77-4.66-16.13-7.06l.83-2.36c5.68,1.48,11.33,3.07,17,4.59l8.46,2.32,8.47,2.23c11.3,2.9,22.59,5.61,33.95,7.7,2.84.49,5.66,1.13,8.51,1.54l8.52,1.35c5.7.7,11.37,1.54,17.07,2l4.27.4c1.42.14,2.85.17,4.27.26,2.85.16,5.69.35,8.54.47,5.69.07,11.37.28,17,0l4.25-.1,2.12,0,2.12-.15,8.47-.58c1.41-.08,2.82-.25,4.22-.41l4.21-.47c2.81-.34,5.62-.55,8.4-1.07l8.36-1.35,2.08-.34,2.07-.43,4.15-.86,4.13-.86c1.38-.29,2.77-.53,4.13-.92l8.18-2.13a323.12,323.12,0,0,0,63.07-24.34,461.65,461.65,0,0,0,58.34-35.15c1.17-.81,2.36-1.59,3.52-2.42l3.46-2.54,6.92-5.06c2.29-1.7,4.63-3.34,6.9-5.09l6.73-5.33,6.77-5.3c1.12-.89,2.27-1.75,3.38-2.66l3.29-2.77,13.2-11.08c4.35-3.77,8.6-7.65,12.91-11.47l6.45-5.75,6.26-6,12.55-12,6.6-6.24,3.3-3.11,3.41-3,6.82-6,7-5.7,3.52-2.85,3.62-2.71,7.22-5.43,7.41-5.18,3.7-2.58,3.79-2.45,7.57-4.9,7.73-4.63,3.87-2.31,3.93-2.19,7.87-4.36,8-4.11c1.33-.68,2.66-1.39,4-2l4.05-1.93c2.71-1.28,5.4-2.58,8.11-3.84l8.21-3.6c1.37-.6,2.73-1.22,4.11-1.79l4.15-1.68c2.77-1.12,5.53-2.27,8.31-3.35a538.83,538.83,0,0,1,68.17-21.08c46.22-11,93.4-16.43,140.5-18.29a1026.6,1026.6,0,0,1,141,5c46.74,4.8,93.19,12.08,138.82,23.19Z" transform="translate(-1510.5 -337.34)"/><polygon class="cls-3" points="1295.84 654.23 1295.84 1387.5 1695.84 720.83 1800 1487.5 2200 1487.5 1962.5 308.33 1733.34 308.33 1308.34 650 1295.84 654.23"/></g></svg>